<?xml version="1.0" encoding="UTF-8"?>
<svg width="357px" height="149px" viewBox="0 0 357 149" version="1.1" xmlns="http://www.w3.org/2000/svg" xmlns:xlink="http://www.w3.org/1999/xlink">
    <!-- Generator: Sketch 48.2 (47327) - http://www.bohemiancoding.com/sketch -->
    <title>c2 logo</title>
    <desc>Created with Sketch.</desc>
    <defs>
        <polygon id="path-1" points="0 0.719 81.4147 0.719 81.4147 89 0 89"></polygon>
        <polygon id="path-3" points="0.7153 0.7193 85.5632461 0.7193 85.5632461 89 0.7153 89"></polygon>
    </defs>
    <g id="Symbols" stroke="none" stroke-width="1" fill="none" fill-rule="evenodd">
        <g id="c2-logo">
            <g id="Page-1">
                <g id="Group-3" transform="translate(0.000000, 59.664000)">
                    <mask id="mask-2" fill="white">
                        <use xlink:href="#path-1"></use>
                    </mask>
                    <g id="Clip-2"></g>
                    <path d="M42.1787,89 C18.9647,89 -0.0003,69.382 -0.0003,45.023 C-0.0003,20.664 18.9647,0.719 42.1787,0.719 C60.9787,0.719 75.6927,11.836 81.4147,28.838 L66.5377,28.838 C61.7967,19.684 53.1327,13.471 42.1787,13.471 C26.6477,13.471 13.8957,27.694 13.8957,45.023 C13.8957,62.353 26.6477,76.248 42.1787,76.248 C53.2957,76.248 61.9597,70.036 66.5377,60.881 L81.4147,60.881 C75.8557,77.883 60.9787,89 42.1787,89" id="Fill-1" fill="#010202" mask="url(#mask-2)"></path>
                </g>
                <path d="M144.689,101.4169 C139.13,106.3219 129.158,107.4659 119.186,108.1199 C100.876,109.2649 96.789,115.6409 96.789,122.6699 C96.789,131.8249 105.616,135.7489 116.406,135.7489 C130.793,135.7489 144.362,129.5359 144.689,114.3329 L144.689,101.4169 Z M144.852,137.0569 C138.803,144.4129 128.995,148.6639 115.916,148.6639 C98.586,148.6639 83.056,140.8159 83.056,122.6699 C83.056,105.3409 95.644,97.4939 117.387,96.3499 C137.986,95.3679 144.689,91.6079 144.689,84.9049 C144.689,78.2029 138.313,73.1349 124.09,73.1349 C115.262,73.1349 103.655,75.9139 102.183,88.1759 L87.797,88.1759 C88.778,71.3359 102.674,60.3829 124.253,60.3829 C146.814,60.3829 158.258,70.8459 158.258,86.5399 L158.258,132.9699 C158.258,137.2199 159.402,143.4329 160.71,146.7019 L146.978,146.7019 C145.833,144.2499 145.016,140.9799 144.852,137.0569 Z" id="Fill-4" fill="#010202"></path>
                <path d="M207.6504,74.2792 C193.1004,73.4622 180.6754,81.1452 180.6754,97.9842 L180.6754,146.7022 L166.7804,146.7022 L166.7804,62.5082 L180.1854,62.5082 L180.1854,71.9902 C186.5614,62.9992 198.0044,59.4022 207.6504,60.5472 L207.6504,74.2792 Z" id="Fill-6" fill="#010202"></path>
                <g id="Group-10" transform="translate(203.000000, 59.664000)">
                    <mask id="mask-4" fill="white">
                        <use xlink:href="#path-3"></use>
                    </mask>
                    <g id="Clip-9"></g>
                    <path d="M70.1953,36.1953 C66.7613,22.4633 55.3183,13.3073 43.0563,13.3073 C31.4503,13.3073 19.1883,21.8083 15.5913,36.1953 L70.1953,36.1953 Z M83.6003,60.8813 C77.7163,78.8643 63.3293,89.0003 43.8743,89.0003 C19.6783,89.0003 0.7153,69.7093 0.7153,45.0233 C0.7153,20.6643 19.6783,0.7193 43.0563,0.7193 C64.7993,0.7193 85.7253,18.7023 85.5623,48.6203 L14.7743,48.6203 C16.5733,66.1123 29.9783,76.4123 43.8743,76.4123 C55.8083,76.4123 64.3093,70.6893 68.8873,60.8813 L83.6003,60.8813 Z" id="Fill-8" fill="#010202" mask="url(#mask-4)"></path>
                </g>
                <path d="M356.2197,128.7363 L356.2197,144.6693 L293.9147,144.6693 L293.9147,137.0263 C293.9147,116.8193 307.2567,107.1043 320.9877,99.7213 C337.6977,90.7843 339.3807,86.6383 339.3807,81.3283 C339.3807,75.3693 335.6237,70.1883 326.5577,70.1883 C317.6187,70.1883 312.3087,77.0533 312.3087,86.2503 L295.0807,86.2503 C295.0807,69.7993 305.8317,54.3853 326.4277,54.3853 C347.1527,54.3853 356.4797,68.3743 356.4797,81.4573 C356.4797,98.4253 344.9507,105.0323 329.5357,113.4523 C320.4687,118.3743 313.4747,123.2963 312.9557,128.7363 L356.2197,128.7363 Z" id="Fill-11" fill="#00AC68"></path>
                <path d="M281.084,10.6445 C280.326,11.0165 279.406,10.7155 279.027,9.9475 C278.641,9.1895 278.961,8.2835 279.713,7.9085 C280.482,7.5195 281.4,7.8295 281.775,8.5775 C282.154,9.3445 281.85,10.2675 281.084,10.6445 M277.652,19.5325 C276.572,20.0685 275.262,19.6205 274.719,18.5375 C274.186,17.4635 274.629,16.1395 275.713,15.6115 C276.797,15.0695 278.109,15.5085 278.648,16.5895 C279.184,17.6805 278.748,18.9995 277.652,19.5325 M275.326,30.2555 C273.785,31.0255 271.896,30.4025 271.135,28.8505 C270.365,27.3015 270.994,25.4205 272.541,24.6585 C274.09,23.8875 275.971,24.5175 276.74,26.0645 C277.508,27.6215 276.875,29.4875 275.326,30.2555 M257.58,42.8195 C256.643,43.2455 254.888,42.6495 253.67,41.4835 C252.471,40.3245 252.25,39.0375 253.201,38.6195 C254.149,38.1885 255.901,38.7895 257.12,39.9505 C258.333,41.1135 258.537,42.4055 257.58,42.8195 M246.068,35.9025 C245.401,36.1875 244.19,35.7135 243.36,34.8735 C242.552,34.0355 242.432,33.1295 243.102,32.8535 C243.778,32.5825 244.99,33.0445 245.811,33.8805 C246.623,34.7175 246.753,35.6315 246.068,35.9025 M235.451,30.0625 C234.988,30.2695 234.129,29.9565 233.538,29.3695 C232.966,28.8055 232.869,28.1665 233.347,27.9615 C233.818,27.7735 234.664,28.0665 235.241,28.6475 C235.836,29.2345 235.922,29.8605 235.451,30.0625 M289.004,29.4415 C291.324,28.1565 291.357,27.7295 291.324,25.3205 C291.278,21.9685 287.971,13.9735 287.971,13.9735 C288.528,11.3355 287.087,10.1215 287.349,8.8325 C287.605,7.5435 287.197,0.5705 284.105,0.0515 C281.01,-0.4655 276.885,2.8865 271.727,12.6785 C267.971,19.8205 265.256,31.7285 264.061,37.6695 L263.762,36.8715 C263.434,36.7345 263.074,36.6535 262.711,36.6835 C262.908,36.2405 262.906,35.7185 262.662,35.2765 C262.335,34.6825 261.665,34.3955 261.005,34.4995 C260.176,32.4165 259.064,27.8365 261.374,23.6745 C261.925,23.1345 262.863,22.1435 262.163,21.7715 C261.486,21.4485 261.196,22.6565 261.066,23.4325 C258.655,27.7415 259.794,32.4635 260.64,34.6215 L260.321,34.7925 C259.374,32.7885 257.148,29.0655 252.296,28.0115 C251.649,27.5945 250.54,27.0195 250.35,27.7435 C250.141,28.5105 251.53,28.4735 252.277,28.3965 C256.989,29.4495 259.123,33.1355 260.008,35.0495 C259.579,35.5455 259.453,36.2575 259.773,36.8535 C260.016,37.3025 260.453,37.5815 260.928,37.6505 C260.713,37.9535 260.582,38.2885 260.522,38.6375 L260.764,38.9735 C251.367,31.4125 233.873,24.0465 226.615,21.7065 C218.627,19.1245 219.145,23.5135 219.914,25.5745 C220.691,27.6315 227.65,32.5585 229.451,33.8505 C231.266,35.1385 241.57,47.7415 242.859,48.7695 C244.143,49.8045 247.24,49.8045 247.24,49.8045 C246.467,53.9315 249.047,57.5405 250.594,59.8615 C252.139,62.1765 270.443,76.8725 270.703,66.5635 C270.957,56.2485 264.783,44.7325 264.783,44.7325 C264.902,44.8775 265.039,45.0135 265.166,45.1555 C265.791,46.2185 266.473,47.0975 266.975,47.8385 C267.043,48.5505 267.424,49.6415 268.051,50.7785 C269.029,52.5805 270.238,53.8125 270.75,53.5375 C271.262,53.2525 270.885,51.5665 269.9,49.7725 C269.744,49.4825 269.58,49.2075 269.416,48.9495 C276.35,53.9295 286.113,57.1315 288.373,57.3355 C291.209,57.5975 291.897,54.2605 291.897,54.2605 C299.883,46.2745 296.732,37.9495 295.961,34.8565 C295.188,31.7625 289.004,29.4415 289.004,29.4415 M260.35,34.7225 L260.564,34.6065 C260.531,34.6265 260.496,34.6375 260.447,34.6655 C260.41,34.6845 260.375,34.7085 260.35,34.7225" id="Fill-15" fill="#00AC68"></path>
            </g>
        </g>
    </g>
</svg>